<svg xmlns="http://www.w3.org/2000/svg" viewBox="0 0 24 24" role="img">
  <path fill="#4285F4" d="M22.56 12.25c0-.78-.07-1.53-.2-2.25H12v4.26h5.92a5.06 5.06 0 0 1-2.2 3.32v2.77h3.57c2.09-1.92 3.27-4.75 3.27-8.1Z"/>
  <path fill="#34A853" d="M12 23c2.97 0 5.46-.98 7.29-2.65l-3.57-2.77c-.98.66-2.24 1.06-3.72 1.06-2.87 0-5.3-1.94-6.17-4.55H2.14v2.84A11 11 0 0 0 12 23Z"/>
  <path fill="#FBBC05" d="M5.83 14.09A6.6 6.6 0 0 1 5.48 12c0-.72.13-1.43.35-2.09V7.07H2.14A11 11 0 0 0 1 12c0 1.77.42 3.44 1.14 4.93l3.69-2.84Z"/>
  <path fill="#EA4335" d="M12 5.36c1.62 0 3.06.56 4.21 1.64l3.16-3.16A10.6 10.6 0 0 0 12 1a11 11 0 0 0-9.86 6.07l3.69 2.84C6.7 7.3 9.13 5.36 12 5.36Z"/>
</svg>
